<?xml version="1.0" encoding="UTF-8"?>
<svg width="10px" height="16px" viewBox="0 0 10 16" version="1.1" xmlns="http://www.w3.org/2000/svg" xmlns:xlink="http://www.w3.org/1999/xlink">
    <title>手机</title>
    <g id="PC-New-Homepage" stroke="none" stroke-width="1" fill="none" fill-rule="evenodd">
        <g id="Apple-TV备份-53" transform="translate(-1436, -7786)" fill="#1F1F1F" fill-rule="nonzero">
            <g id="编组" transform="translate(80, 7541)">
                <g id="编组-3备份" transform="translate(1346, 232)">
                    <g id="手机" transform="translate(10, 13)">
                        <path d="M7.27959272,0 L2.72040728,0 C1.22035538,0 0,1.2974955 0,2.89236746 L0,13.1076325 C0,14.7025045 1.22035538,16 2.72040728,16 L7.27959272,16 C8.77964462,16 10,14.7025045 10,13.1076325 L10,2.89236746 C10,1.2974955 8.77964462,0 7.27959272,0 L7.27959272,0 Z M9.09320873,13.1076325 C9.09320873,14.1708509 8.27961616,15.0358716 7.27960946,15.0358716 L2.72040728,15.0358716 C1.72040059,15.0358716 0.906808008,14.1708509 0.906808008,13.1076325 L0.906808008,2.89236746 C0.906808008,1.82914915 1.72040059,0.96411062 2.72040728,0.96411062 L3.66073133,0.96411062 C3.66324252,1.228024 3.86485772,1.44131556 4.11366657,1.44131556 L5.88631668,1.44131556 C6.13514228,1.44131556 6.33674074,1.228024 6.33925193,0.96411062 L7.27957598,0.96411062 C8.27958267,0.96411062 9.09320873,1.82913135 9.09320873,2.89236746 L9.09320873,13.1076325 L9.09320873,13.1076325 Z" id="形状"></path>
                        <path d="M5.88633343,13.5035471 L4.11368332,13.5035471 C3.86330078,13.5035471 3.66027931,13.719384 3.66027931,13.9856113 C3.66027931,14.2518386 3.86328404,14.4676755 4.11368332,14.4676755 L5.88633343,14.4676755 C6.13671596,14.4676755 6.33973743,14.2518386 6.33973743,13.9856113 C6.33973743,13.719384 6.13671596,13.5035471 5.88633343,13.5035471 Z" id="路径"></path>
                    </g>
                </g>
            </g>
        </g>
    </g>
</svg>