<?xml version="1.0" standalone="no"?>
<!DOCTYPE svg PUBLIC "-//W3C//DTD SVG 20010904//EN"
 "http://www.w3.org/TR/2001/REC-SVG-20010904/DTD/svg10.dtd">
<svg version="1.0" xmlns="http://www.w3.org/2000/svg"
 width="200.000000pt" height="200.000000pt" viewBox="0 0 200.000000 200.000000"
 preserveAspectRatio="xMidYMid meet">

<g transform="translate(0.000000,200.000000) scale(0.100000,-0.100000)"
fill="#d72b35" stroke="none">
<path d="M865 1970 c-131 -20 -281 -79 -402 -156 -78 -49 -204 -174 -263 -260
-270 -391 -224 -915 111 -1252 306 -308 773 -379 1156 -177 263 139 444 381
505 675 16 77 19 121 15 230 -6 165 -28 256 -96 395 -164 334 -479 538 -851
550 -63 2 -142 0 -175 -5z m210 -684 c28 -13 61 -32 75 -44 l25 -21 -45 -45
-45 -46 -49 25 c-94 48 -192 23 -246 -61 -53 -85 -34 -189 47 -251 32 -25 45
-28 108 -28 63 0 76 3 108 28 20 15 44 41 52 58 l16 29 -91 0 -90 0 0 65 0 65
165 0 165 0 0 -43 c0 -101 -44 -204 -116 -266 -63 -56 -118 -75 -209 -75 -92
0 -151 23 -218 83 -73 66 -117 181 -103 273 33 217 256 342 451 254z m824 -10
c14 -9 15 -266 1 -348 -25 -156 -133 -251 -285 -252 -119 -1 -218 62 -269 173
-18 41 -21 69 -24 239 l-4 192 71 0 71 0 0 -177 c0 -200 7 -229 69 -270 72
-49 186 -17 222 60 16 36 19 67 19 214 0 104 4 173 10 175 17 5 107 1 119 -6z
m-1649 -107 l0 -111 117 111 118 111 98 0 98 0 -88 -82 c-48 -46 -123 -117
-167 -159 l-78 -75 171 -138 c94 -75 173 -141 176 -146 4 -6 -34 -10 -96 -10
l-101 0 -124 100 -123 101 -3 -98 -3 -98 -65 0 -65 0 -3 303 -2 302 70 0 70 0
0 -111z"/>
</g>
</svg>
