<?xml version="1.0" encoding="UTF-8"?>
<svg width="24px" height="16px" viewBox="0 0 24 16" version="1.1" xmlns="http://www.w3.org/2000/svg" xmlns:xlink="http://www.w3.org/1999/xlink">
    <title>电脑-94</title>
    <g id="PC-New-Homepage" stroke="none" stroke-width="1" fill="none" fill-rule="evenodd">
        <g id="Apple-TV备份-53" transform="translate(-1336, -7786)" fill="#1F1F1F" fill-rule="nonzero">
            <g id="编组" transform="translate(80, 7541)">
                <g id="编组-3" transform="translate(1246, 232)">
                    <g id="电脑-94" transform="translate(10, 13)">
                        <path d="M20.7,13.7777778 L3.30000001,13.7777778 C2.80500002,13.7777778 2.40000001,13.3777778 2.40000001,12.8888889 L2.40000001,2.37037038 C2.40000001,1.06666668 3.48000002,0 4.80000001,0 L19.2,0 C20.52,0 21.6,1.06666668 21.6,2.37037038 L21.6,12.8888889 C21.6,13.3777778 21.195,13.7777778 20.7,13.7777778 L20.7,13.7777778 Z M3.59999999,12.5925926 L20.4,12.5925926 L20.4,2.37037038 C20.4,1.71851853 19.86,1.18518517 19.2,1.18518517 L4.80000001,1.18518517 C4.14000001,1.18518517 3.59999999,1.7185185 3.59999999,2.37037038 L3.59999999,12.5925926 L3.59999999,12.5925926 Z" id="形状"></path>
                        <path d="M21.9,16 L2.09999999,16 C0.945000007,16 0,15.0666667 0,13.9259259 L0,13.4814815 C0,12.9925926 0.404999987,12.5925926 0.900000006,12.5925926 L23.1,12.5925926 C23.595,12.5925926 24,12.9925926 24,13.4814815 L24,13.9259259 C24,15.0666667 23.055,16 21.9,16 L21.9,16 Z M1.20000002,13.7777778 L1.20000002,13.9259259 C1.20000002,14.4148148 1.605,14.8148148 2.09999999,14.8148148 L21.9,14.8148148 C22.395,14.8148148 22.8,14.4148148 22.8,13.9259259 L22.8,13.7777778 L1.20000002,13.7777778 Z" id="形状"></path>
                    </g>
                </g>
            </g>
        </g>
    </g>
</svg>