<svg xmlns="http://www.w3.org/2000/svg" xmlns:xlink="http://www.w3.org/1999/xlink" fill="none" version="1.1" width="16" height="16" viewBox="0 0 16 16"><g><g><path d="M13.2796,0L2.72039,0C1.22042,0,0,1.22042,0,2.72039L0,10.9607C0,12.4606,1.22042,13.681,2.72039,13.681L13.2796,13.681C14.7796,13.681,16,12.4606,16,10.9607L16,2.72039C16,1.22042,14.7796,0,13.2796,0ZM13.2796,12.5357C14.1479,12.5357,14.8545,11.8291,14.8545,10.9607L14.8545,2.72047C14.8545,1.85209,14.1479,1.14551,13.2796,1.14551L2.72035,1.14551C1.85197,1.14551,1.14539,1.85209,1.14539,2.72047L1.14539,10.9607C1.14539,11.8291,1.85197,12.5357,2.72035,12.5357L13.2796,12.5357ZM11.4208,14.8545L4.54696,14.8545C4.23071,14.8545,3.97424,15.111,3.97424,15.4272C3.97424,15.7435,4.23071,15.9999,4.54696,15.9999L11.4208,15.9999C11.737,15.9999,11.9935,15.7435,11.9935,15.4272C11.9935,15.111,11.737,14.8545,11.4208,14.8545Z" fill-rule="evenodd" fill="#1F1F1F" fill-opacity="1"/></g><g><path d="M12.858677995300292,2.893276199194336C12.581257995300293,2.7411491991943358,12.233157995300292,2.842805899194336,12.081207995300293,3.120214299194336L9.055317995300292,8.639742299194335L6.203017995300293,4.824752299194336C6.084887995300293,4.666812299194336,5.893817995300293,4.580742299194336,5.697247995300293,4.596922299194336C5.500727995300293,4.613202299194336,5.326237995300293,4.729362299194336,5.235677995300293,4.904572299194336L2.892739395300293,9.432592299194337C2.747413395300293,9.713572299194336,2.857302795300293,10.058992299194337,3.138110995300293,10.204502299194335C3.222228995300293,10.247992299194337,3.312251995300293,10.268752299194336,3.400843995300293,10.268752299194336C3.608093995300293,10.268752299194336,3.808185995300293,10.155822299194336,3.9100179953002927,9.959122299194336L5.8329079953002925,6.242932299194337L8.670877995300293,10.038952299194335C8.787507995300292,10.195022299194335,8.975507995300294,10.281072299194335,9.169857995300294,10.267322299194337C9.364187995300293,10.253722299194337,9.538247995300292,10.142182299194335,9.631787995300293,9.971292299194335L13.085577995300293,3.671271299194336C13.237777995300293,3.393505299194336,13.136077995300292,3.045403299194336,12.858677995300292,2.893276199194336Z" fill="#1F1F1F" fill-opacity="1"/></g></g></svg>