<svg xmlns="http://www.w3.org/2000/svg" xmlns:xlink="http://www.w3.org/1999/xlink" fill="none" version="1.1" width="18" height="14" viewBox="0 0 18 14"><g><g><g><path d="M16,7C16,3.278,12.86,0,9,0C5.140000000000001,0,2,3.278,2,7C2,7.694,2.109333,8.63,2.325667,9.28733L2.620667,10.0753C2.8043329999999997,10.5967,2.897667,11.145,2.897667,11.7087C2.89845,12.3886,2.757923,13.0613,2.485,13.684L2.499667,13.684C3.4009,13.6859,4.29311,13.5045,5.122,13.1507L5.38733,13.0373L5.64367,13.1727C6.66867,13.714,7.82933,14,9,14C12.86,14,16,10.722,16,7ZM9.00004,1.33325C5.9097100000000005,1.33325,3.33337,3.97325,3.33337,6.99992C3.33337,7.61425,3.43504,8.37625,3.57471,8.80859L3.85671,9.57025C4.15229,10.4262,4.241709999999999,11.3399,4.117710000000001,12.2369C4.43771,12.1646,4.75104,12.0629,5.05504,11.9316L5.30304,11.8246C5.53116,11.7255,5.79213,11.7366,6.01104,11.8546L6.25037,11.9826C7.09721,12.432,8.04134,12.6668,9.00004,12.6666C12.0904,12.6666,14.6667,10.0266,14.6667,6.99992C14.6667,3.97325,12.0904,1.33325,9.00004,1.33325ZM6.55335,8.06322C6.97699,9.03708,7.93799,9.66684,9.00001,9.66655C10.05672,9.66686,11.01396,9.04326,11.44068,8.07655C11.59328,7.74618,11.9826,7.59922,12.3154,7.74635C12.6483,7.89348,12.8016,8.28033,12.66,8.61555C12.02,10.0651,10.58459,11.0002,9.00001,10.9999C7.39301,10.9999,5.9613499999999995,10.0432,5.33101,8.59522C5.18971,8.25888,5.34498,7.87144,5.67945,7.72577C6.01392,7.58011,6.40335,7.73033,6.55335,8.06288L6.55335,8.06322Z" fill-rule="evenodd" fill="#1F1F1F" fill-opacity="1"/></g></g></g></svg>