<svg xmlns="http://www.w3.org/2000/svg" xmlns:xlink="http://www.w3.org/1999/xlink" fill="none" version="1.1" width="40" height="40" viewBox="0 0 40 40"><defs><radialGradient cx="0" cy="0" r="1" gradientUnits="userSpaceOnUse" id="master_svg0_0_2180" gradientTransform="translate(-1.2323475573339238e-12 4.513942897319794) rotate(40.37961464176283) scale(47.823414228208804 47.823414228208804)"><stop offset="0%" stop-color="#FF736A" stop-opacity="1"/><stop offset="19.1719189286232%" stop-color="#FF1A1A" stop-opacity="1"/><stop offset="46.37487530708313%" stop-color="#D9267F" stop-opacity="1"/><stop offset="100%" stop-color="#261DFB" stop-opacity="1"/></radialGradient></defs><g><g><path d="M0,20C0,9,9,0,20,0C31,0,40,9,40,20C40,31,31,40,20,40C15.6,40,12.4,38.4,12.4,38.4L3.4,38.6C2.2,38.6,1.8,37.6,1.8,37L2,28.6C1.8,28.6,0,24.6,0,20ZM6.40039,20.0002C6.40039,27.6002,12.6004,33.6002,20.0004,33.6002C27.4004,33.6002,33.6004,27.4002,33.2004,20.0002C33.2004,17.8002,30.2004,18.0002,30.2004,20.0002C30.2004,25.6002,25.6004,30.4002,19.8004,30.4002C14.2004,30.4002,9.40039,25.8002,9.40039,20.0002C9.40039,18.0002,6.60039,17.8002,6.40039,20.0002Z" fill-rule="evenodd" fill="url(#master_svg0_0_2180)" fill-opacity="1"/></g></g></svg>