<svg xmlns="http://www.w3.org/2000/svg" xmlns:xlink="http://www.w3.org/1999/xlink" fill="none" version="1.1" width="40" height="40" viewBox="0 0 40 40"><defs><radialGradient cx="0" cy="0" r="1" gradientUnits="userSpaceOnUse" id="master_svg0_0_2180" gradientTransform="translate(-1.2323475573339238e-12 4.513942897319794) rotate(40.37961464176283) scale(47.823414228208804 47.823414228208804)"><stop offset="0%" stop-color="#FF736A" stop-opacity="1"/><stop offset="19.1719189286232%" stop-color="#FF1A1A" stop-opacity="1"/><stop offset="46.37487530708313%" stop-color="#D9267F" stop-opacity="1"/><stop offset="100%" stop-color="#261DFB" stop-opacity="1"/></radialGradient></defs><g><g><path d="M36.8381,0L3.21905,0C1.44122,0,0,1.44122,0,3.21905L0,36.8381C0.0311672,38.5936,1.4633,40.0003,3.21905,40L36.8381,40C38.5716,39.9695,39.9695,38.5716,40,36.8381L40,3.21905C40.0003,1.4633,38.5936,0.0311672,36.8381,0ZM5.87117,20.6727C6.12287,21.2767,6.71703,21.6666,7.37136,21.6571C7.80078,21.6582,8.2126,21.4866,8.51422,21.1809L14.7809,14.8952C15.0821,14.595,15.2515,14.1872,15.2515,13.7619C15.2515,13.3366,15.0821,12.9287,14.7809,12.6285L8.51422,6.28568C8.10932,5.87737,7.51735,5.7161,6.96129,5.8626C6.40524,6.0091,5.96959,6.44113,5.81844,6.99593C5.66729,7.55074,5.8236,8.14404,6.2285,8.55234L11.4285,13.7523L6.2285,18.9142C5.76101,19.3722,5.61948,20.0686,5.87117,20.6727ZM24.7621,21.6572L15.8478,21.6572C14.9589,21.6572,14.2383,20.9366,14.2383,20.0476C14.2383,19.1587,14.9589,18.4381,15.8478,18.4381L24.7621,18.4381C25.651,18.4381,26.3716,19.1587,26.3716,20.0476C26.3716,20.9366,25.651,21.6572,24.7621,21.6572Z" fill-rule="evenodd" fill="url(#master_svg0_0_2180)" fill-opacity="1"/></g></g></svg>