<svg xmlns="http://www.w3.org/2000/svg" xmlns:xlink="http://www.w3.org/1999/xlink" fill="none" version="1.1" width="40" height="40" viewBox="0 0 40 40"><defs><radialGradient cx="0" cy="0" r="1" gradientUnits="userSpaceOnUse" id="master_svg0_0_60907" gradientTransform="translate(-1.2323473222822809e-12 4.513942036353512) rotate(40.37961464176283) scale(47.823405106616434 47.823405106616434)"><stop offset="0%" stop-color="#FF736A" stop-opacity="1"/><stop offset="19.1719189286232%" stop-color="#FF1A1A" stop-opacity="1"/><stop offset="46.37487530708313%" stop-color="#D9267F" stop-opacity="1"/><stop offset="100%" stop-color="#261DFB" stop-opacity="1"/></radialGradient></defs><g><g><path d="M36.1496,0C37.2001,0,38.0534,0.892593,38.0543,1.99538L40,37.9529C40.0019,39.0567,39.1495,39.9527,38.098,39.9537L1.90755,40L1.90569,40C0.854266,40,0.000933333,39.1079,0,38.0051L1.86391,2.04171C1.86298,0.938416,2.71538,0.0429329,3.7668,0.0419539L36.1478,0L36.1496,0ZM20.0098,23.6066C24.6285,23.6023,28.7914,20.7865,30.6162,16.4344C31.0394,15.4242,30.6018,14.2454,29.6391,13.801C28.676,13.3586,27.5525,13.8161,27.1284,14.8258C25.9114,17.7298,23.1157,19.6081,20.0051,19.611L19.9939,19.611C16.8894,19.611,14.0941,17.7405,12.8702,14.8433C12.4437,13.8342,11.3165,13.3786,10.3571,13.8259C9.395,14.2731,8.96114,15.453,9.38709,16.4617C11.2217,20.8041,15.3832,23.6066,19.993,23.6066L20.0098,23.6066Z" fill-rule="evenodd" fill="url(#master_svg0_0_60907)" fill-opacity="1"/></g></g></svg>