<svg xmlns="http://www.w3.org/2000/svg" xmlns:xlink="http://www.w3.org/1999/xlink" fill="none" version="1.1" width="40" height="40" viewBox="0 0 40 40"><defs><radialGradient cx="0" cy="0" r="1" gradientUnits="userSpaceOnUse" id="master_svg0_0_60935" gradientTransform="translate(-1.2323475573339238e-12 4.513942897319794) rotate(40.37961464176283) scale(47.823414228208804 41.58557622646532)"><stop offset="0%" stop-color="#FF736A" stop-opacity="1"/><stop offset="19.1719189286232%" stop-color="#FF1A1A" stop-opacity="1"/><stop offset="46.37487530708313%" stop-color="#D9267F" stop-opacity="1"/><stop offset="100%" stop-color="#261DFB" stop-opacity="1"/></radialGradient></defs><g><path d="M27.9255,0L12.0763,0C10.974,0.000300475,9.93566,0.584528,9.27102,1.57833L0.711033,14.3799C-0.334453,15.9439,-0.215372,18.1357,0.991558,19.5433L17.4924,38.7915C18.156,39.5652,19.069,40.0013,20.0224,40C20.9758,39.9987,21.8879,39.56,22.5498,38.7845L39.0137,19.4946C40.2175,18.0846,40.3328,15.8936,39.2855,14.3322L30.7281,1.57436C30.0633,0.582885,29.0262,0.00029151,27.9255,0ZM30.1728,13.7191C29.5824,13.1936,28.6784,13.2154,28.1147,13.7688L28.1147,13.7679L20.0026,21.7696L11.8904,13.7679L11.7767,13.6665C11.1587,13.1683,10.2532,13.2362,9.71861,13.8207C9.18406,14.4053,9.20868,15.3008,9.77458,15.8559L18.9441,24.9006L19.0579,25.002C19.6531,25.4799,20.5184,25.4362,21.061,24.9006L30.2305,15.8559L30.3333,15.7437C30.8337,15.134,30.7633,14.2447,30.1728,13.7191Z" fill-rule="evenodd" fill="url(#master_svg0_0_60935)" fill-opacity="1"/></g></svg>