<svg xmlns="http://www.w3.org/2000/svg" xmlns:xlink="http://www.w3.org/1999/xlink" fill="none" version="1.1" width="20" height="20" viewBox="0 0 20 20"><g><g><path d="M16.4903,17.6077Q16.1542,17.8944,15.7942,18.1503Q15.4342,18.4062,15.053,18.6294Q14.6718,18.8527,14.2724,19.0414Q13.873,19.2301,13.4586,19.3829Q13.0441,19.5356,12.6178,19.6513Q12.1915,19.7669,11.7566,19.8445Q11.3217,19.9221,10.8817,19.9611Q10.4417,20,10,20Q9.75451,20,9.50932,19.988Q9.26413,19.9759,9.01983,19.9518Q8.77552,19.9278,8.53269,19.8918Q8.28987,19.8557,8.0491,19.8078Q7.80833,19.76,7.5702,19.7003Q7.33207,19.6407,7.09715,19.5694Q6.86224,19.4981,6.6311,19.4154Q6.39996,19.3327,6.17316,19.2388Q5.94636,19.1448,5.72445,19.0399Q5.50253,18.9349,5.28603,18.8192Q5.06953,18.7035,4.85897,18.5773Q4.64841,18.4511,4.4443,18.3147Q4.24018,18.1783,4.04301,18.0321Q3.84583,17.8858,3.65607,17.7301Q3.4663,17.5744,3.28441,17.4095Q3.10252,17.2446,2.92893,17.0711Q2.75535,16.8975,2.59049,16.7156Q2.42563,16.5337,2.2699,16.3439Q2.11416,16.1542,1.96792,15.957Q1.82169,15.7598,1.6853,15.5557Q1.54892,15.3516,1.42271,15.141Q1.29651,14.9305,1.18079,14.714Q1.06507,14.4975,0.960107,14.2755Q0.855148,14.0536,0.761205,13.8268Q0.667261,13.6,0.584559,13.3689Q0.501857,13.1378,0.430597,12.9028Q0.359336,12.6679,0.299687,12.4298Q0.240039,12.1917,0.192147,11.9509Q0.144255,11.7101,0.108235,11.4673Q0.0722146,11.2245,0.0481527,10.9802Q0.0240909,10.7359,0.0120454,10.4907Q0,10.2455,0,10Q0,9.75451,0.0120454,9.50932Q0.0240909,9.26413,0.0481527,9.01983Q0.0722146,8.77552,0.108235,8.53269Q0.144255,8.28987,0.192147,8.0491Q0.240039,7.80833,0.299687,7.5702Q0.359336,7.33207,0.430597,7.09715Q0.501857,6.86224,0.584559,6.6311Q0.667261,6.39996,0.761205,6.17316Q0.855148,5.94636,0.960107,5.72445Q1.06507,5.50253,1.18079,5.28603Q1.29651,5.06953,1.42271,4.85897Q1.54892,4.64841,1.6853,4.4443Q1.82169,4.24018,1.96792,4.04301Q2.11416,3.84583,2.2699,3.65607Q2.42563,3.4663,2.59049,3.28441Q2.75535,3.10252,2.92893,2.92893Q3.10252,2.75535,3.28441,2.59049Q3.4663,2.42563,3.65607,2.2699Q3.84583,2.11416,4.04301,1.96792Q4.24018,1.82169,4.4443,1.6853Q4.64841,1.54892,4.85897,1.42271Q5.06953,1.29651,5.28603,1.18079Q5.50253,1.06507,5.72445,0.960107Q5.94636,0.855148,6.17316,0.761205Q6.39996,0.667261,6.6311,0.584559Q6.86224,0.501857,7.09715,0.430597Q7.33207,0.359336,7.5702,0.299687Q7.80833,0.240039,8.0491,0.192147Q8.28987,0.144255,8.53269,0.108235Q8.77552,0.0722146,9.01983,0.0481527Q9.26413,0.0240909,9.50932,0.0120454Q9.75451,0,10,0Q10.2455,0,10.4907,0.0120454Q10.7359,0.0240909,10.9802,0.0481527Q11.2245,0.0722146,11.4673,0.108235Q11.7101,0.144255,11.9509,0.192147Q12.1917,0.240039,12.4298,0.299687Q12.6679,0.359336,12.9028,0.430597Q13.1378,0.501857,13.3689,0.584559Q13.6,0.667261,13.8268,0.761205Q14.0536,0.855148,14.2755,0.960107Q14.4975,1.06507,14.714,1.18079Q14.9305,1.29651,15.141,1.42271Q15.3516,1.54892,15.5557,1.6853Q15.7598,1.82169,15.957,1.96792Q16.1542,2.11416,16.3439,2.2699Q16.5337,2.42563,16.7156,2.59049Q16.8975,2.75535,17.0711,2.92893Q17.2446,3.10252,17.4095,3.28441Q17.5744,3.4663,17.7301,3.65607Q17.8858,3.84583,18.0321,4.04301Q18.1783,4.24018,18.3147,4.4443Q18.4511,4.64841,18.5773,4.85897Q18.7035,5.06953,18.8192,5.28603Q18.9349,5.50253,19.0399,5.72445Q19.1448,5.94636,19.2388,6.17316Q19.3327,6.39996,19.4154,6.6311Q19.4981,6.86224,19.5694,7.09715Q19.6407,7.33207,19.7003,7.5702Q19.76,7.80833,19.8078,8.0491Q19.8557,8.28987,19.8918,8.53269Q19.9278,8.77552,19.9518,9.01983Q19.9759,9.26413,19.988,9.50932Q20,9.75451,20,10Q20,10.4417,19.9611,10.8817Q19.9221,11.3217,19.8445,11.7566Q19.7669,12.1915,19.6513,12.6178Q19.5356,13.0441,19.3829,13.4586Q19.2301,13.873,19.0414,14.2724Q18.8527,14.6718,18.6294,15.053Q18.4062,15.4342,18.1503,15.7942Q17.8944,16.1542,17.6077,16.4903L19.7686,18.6512C20.0771,18.9597,20.0771,19.46,19.7686,19.7686C19.46,20.0771,18.9597,20.0771,18.6512,19.7686L16.4903,17.6077ZM18.5714,10.0001Q18.5714,10.2106,18.5611,10.4207Q18.5508,10.6309,18.5302,10.8403Q18.5095,11.0497,18.4787,11.2578Q18.4478,11.466,18.4067,11.6723Q18.3657,11.8787,18.3146,12.0828Q18.2634,12.2869,18.2024,12.4883Q18.1413,12.6896,18.0704,12.8878Q17.9995,13.0859,17.919,13.2803Q17.8385,13.4747,17.7485,13.6649Q17.6585,13.8551,17.5593,14.0407Q17.4602,14.2263,17.352,14.4067Q17.2438,14.5872,17.1269,14.7622Q17.01,14.9371,16.8847,15.1061Q16.7593,15.2751,16.6258,15.4378Q16.4923,15.6004,16.351,15.7564Q16.2097,15.9123,16.0609,16.0611Q15.9121,16.2098,15.7562,16.3511Q15.6003,16.4925,15.4377,16.6259Q15.275,16.7594,15.106,16.8848Q14.937,17.0101,14.762,17.127Q14.5871,17.2439,14.4066,17.3521Q14.2261,17.4603,14.0406,17.5595Q13.855,17.6586,13.6648,17.7486Q13.4746,17.8386,13.2802,17.9191Q13.0858,17.9996,12.8876,18.0705Q12.6895,18.1414,12.4882,18.2025Q12.2868,18.2636,12.0827,18.3147Q11.8786,18.3658,11.6722,18.4069Q11.4658,18.4479,11.2577,18.4788Q11.0496,18.5097,10.8402,18.5303Q10.6308,18.5509,10.4206,18.5612Q10.2104,18.5716,10,18.5716Q9.7896,18.5716,9.57944,18.5612Q9.36928,18.5509,9.15987,18.5303Q8.95047,18.5097,8.74233,18.4788Q8.53419,18.4479,8.32781,18.4069Q8.12144,18.3658,7.91733,18.3147Q7.71322,18.2636,7.51186,18.2025Q7.31051,18.1414,7.11239,18.0705Q6.91427,17.9996,6.71987,17.9191Q6.52547,17.8386,6.33526,17.7486Q6.14504,17.6587,5.95947,17.5595Q5.7739,17.4603,5.59342,17.3521Q5.41294,17.2439,5.23799,17.127Q5.06303,17.0101,4.89402,16.8848Q4.72501,16.7594,4.56236,16.6259Q4.39971,16.4925,4.2438,16.3511Q4.08789,16.2098,3.9391,16.0611Q3.79031,15.9123,3.64901,15.7564Q3.5077,15.6004,3.37421,15.4378Q3.24073,15.2751,3.11538,15.1061Q2.99004,14.9371,2.87313,14.7622Q2.75623,14.5872,2.64806,14.4067Q2.53988,14.2263,2.44069,14.0407Q2.3415,13.8551,2.25154,13.6649Q2.16157,13.4747,2.08105,13.2803Q2.00053,13.0859,1.92964,12.8878Q1.85875,12.6896,1.79767,12.4883Q1.73659,12.2869,1.68546,12.0828Q1.63434,11.8787,1.59329,11.6723Q1.55224,11.466,1.52136,11.2578Q1.49049,11.0497,1.46986,10.8403Q1.44924,10.6309,1.43891,10.4207Q1.42859,10.2106,1.42859,10.0001Q1.42859,9.78972,1.43891,9.57956Q1.44924,9.3694,1.46986,9.15999Q1.49049,8.95059,1.52136,8.74245Q1.55224,8.53431,1.59329,8.32794Q1.63434,8.12156,1.68546,7.91745Q1.73659,7.71334,1.79767,7.51198Q1.85875,7.31063,1.92964,7.11251Q2.00053,6.91439,2.08105,6.72Q2.16157,6.5256,2.25154,6.33538Q2.3415,6.14517,2.44069,5.9596Q2.53988,5.77402,2.64806,5.59354Q2.75623,5.41306,2.87313,5.23811Q2.99004,5.06315,3.11538,4.89415Q3.24073,4.72514,3.37421,4.56248Q3.5077,4.39983,3.64901,4.24392Q3.79031,4.08801,3.9391,3.93922Q4.08789,3.79044,4.2438,3.64913Q4.39971,3.50782,4.56236,3.37434Q4.72501,3.24085,4.89402,3.1155Q5.06303,2.99016,5.23799,2.87326Q5.41294,2.75636,5.59342,2.64818Q5.7739,2.54,5.95947,2.44081Q6.14504,2.34162,6.33526,2.25166Q6.52547,2.16169,6.71987,2.08117Q6.91427,2.00065,7.11239,1.92976Q7.31051,1.85887,7.51186,1.79779Q7.71322,1.73671,7.91733,1.68559Q8.12144,1.63446,8.32782,1.59341Q8.53419,1.55236,8.74233,1.52148Q8.95047,1.49061,9.15987,1.46998Q9.36928,1.44936,9.57944,1.43904Q9.7896,1.42871,10,1.42871Q10.2104,1.42871,10.4206,1.43904Q10.6308,1.44936,10.8402,1.46998Q11.0496,1.49061,11.2577,1.52148Q11.4658,1.55236,11.6722,1.59341Q11.8786,1.63446,12.0827,1.68559Q12.2868,1.73671,12.4882,1.79779Q12.6895,1.85887,12.8876,1.92976Q13.0858,2.00065,13.2802,2.08117Q13.4746,2.16169,13.6648,2.25166Q13.855,2.34162,14.0406,2.44081Q14.2261,2.54,14.4066,2.64818Q14.5871,2.75636,14.762,2.87326Q14.937,2.99016,15.106,3.1155Q15.275,3.24085,15.4377,3.37434Q15.6003,3.50782,15.7562,3.64913Q15.9121,3.79044,16.0609,3.93922Q16.2097,4.08801,16.351,4.24392Q16.4923,4.39983,16.6258,4.56248Q16.7593,4.72514,16.8847,4.89414Q17.01,5.06315,17.1269,5.23811Q17.2438,5.41306,17.352,5.59354Q17.4602,5.77402,17.5593,5.9596Q17.6585,6.14517,17.7485,6.33538Q17.8385,6.5256,17.919,6.72Q17.9995,6.91439,18.0704,7.11251Q18.1413,7.31063,18.2024,7.51198Q18.2634,7.71334,18.3146,7.91745Q18.3657,8.12156,18.4067,8.32794Q18.4478,8.53431,18.4787,8.74245Q18.5095,8.95059,18.5302,9.15999Q18.5508,9.3694,18.5611,9.57956Q18.5714,9.78972,18.5714,10.0001Z" fill-rule="evenodd" fill="#1F1F1F" fill-opacity="1"/></g></g></svg>