<svg xmlns="http://www.w3.org/2000/svg" xmlns:xlink="http://www.w3.org/1999/xlink" fill="none" version="1.1" width="16" height="15.99993896484375" viewBox="0 0 16 15.99993896484375"><g><g><g><path d="M8.1757,1.0035000100000002L8,1.0000000000000002C7.7634,1.0000000000000002,7.5303,1.0119000000000002,7.3,1.0343000000000002L7.1796,1.0476000000000003L7.0137,1.0693000000000001L6.7778,1.1064000000000003C3.4948000000000006,1.6846,1.0000000000000002,4.5511,1.0000000000000002,8C1.0000000000000002,11.8661,4.133900000000001,15,8,15C11.5133,15,14.4225,12.4114,14.9237,9.0374L14.9517,8.826L14.9657,8.700000000000001L14.9846,8.469000000000001C14.9951,8.314300000000001,15,8.1575,15,8C15,7.89508,14.9411,7.79903,14.8476,7.75134C14.7542,7.70365,14.6419,7.71237,14.5569,7.7739C14.1691,8.0553,13.8464,8.2492,13.5888,8.356300000000001L13.3956,8.4305C11.6981,9.04464,9.79811,8.59721,8.55306,7.29013C7.30801,5.98304,6.95341,4.063540000000001,7.6493,2.3979C7.7319,2.2033000000000005,7.9587,1.8449000000000002,8.330400000000001,1.3213000000000001C8.3729,1.2612330000000003,8.3793,1.1827810000000003,8.34709,1.1166210000000003C8.31489,1.0504615000000002,8.24919,1.0071031100000003,8.1757,1.0035000100000002ZM5.95115,2.78629L6.06805,2.74219C5.57642,4.76048,6.17299,6.88905,7.64194,8.357850000000001C9.11088,9.82665,11.2395,10.42301,13.2578,9.93119C12.4473,12.1352,10.34832,13.5998,8.00005,13.5999C5.31063,13.5969,3.0028300000000003,11.6831,2.50216,9.04069C2.0014900000000004,6.39828,3.4492400000000005,3.7729300000000006,5.95115,2.78629Z" fill-rule="evenodd" fill="#1F1F1F" fill-opacity="1"/></g></g></g></svg>