<svg xmlns="http://www.w3.org/2000/svg" xmlns:xlink="http://www.w3.org/1999/xlink" fill="none" version="1.1" width="40" height="39.99993896484375" viewBox="0 0 40 39.99993896484375"><defs><radialGradient cx="0" cy="0" r="1" gradientUnits="userSpaceOnUse" id="master_svg0_0_60886" gradientTransform="translate(-1.2323457944466023e-12 4.5139338571733845) rotate(40.379598462019025) scale(47.82333433104623 47.82330753643721)"><stop offset="0%" stop-color="#FF736A" stop-opacity="1"/><stop offset="19.1719189286232%" stop-color="#FF1A1A" stop-opacity="1"/><stop offset="46.37487530708313%" stop-color="#D9267F" stop-opacity="1"/><stop offset="100%" stop-color="#261DFB" stop-opacity="1"/></radialGradient></defs><g><g><path d="M38.3909,1.6063799999995452C37.3669,0.5737349999995452,35.9714,-0.004925550000454747,34.5171,0.00006249979954525265L5.48275,0.00006249979954525265C2.45549,0.0014025899995452526,0.00134009,2.4555499999995454,0,5.4828199999995455L0,34.51719999999955C0.00268018,37.54399999999954,2.45594,39.996799999999546,5.48275,39.999999999999545L34.5171,39.999999999999545C37.5426,39.994599999999544,39.9941,37.54309999999955,39.9999,34.51719999999955L39.9999,5.480139999999545C40.0066,4.025239999999545,39.4268,2.6288699999995453,38.3909,1.6063799999995452ZM22.1785,28.769099999999547C22.1936,29.420099999999547,21.9377,30.048199999999547,21.4718,30.503199999999545C21.0098,30.971199999999545,20.3751,31.227899999999547,19.7176,31.212499999999544C19.0648,31.231199999999546,18.4343,30.973599999999546,17.9813,30.503199999999545C17.5292,30.037299999999544,17.2697,29.417999999999545,17.2545,28.769099999999547L17.2545,11.213499999999545C17.2683,10.563599999999544,17.528,9.943079999999545,17.9813,9.477179999999546C18.4344,9.007119999999546,19.065,8.750449999999546,19.7176,8.770499999999545L19.7177,8.770499999999545C19.748,8.770049999999545,19.7784,8.769609999999545,19.8087,8.770499999999545C21.1412,8.792839999999545,22.2035,9.891259999999546,22.1807,11.223799999999546L22.1785,28.769099999999547ZM30.9641,28.766399999999546C30.9507,29.415699999999546,30.6909,30.035699999999544,30.2373,30.500499999999544C29.7845,30.971399999999544,29.1539,31.228999999999544,28.501,31.209799999999547C27.8433,31.226299999999544,27.2082,30.969499999999545,26.7468,30.500499999999544C26.2801,30.045899999999545,26.0232,29.417799999999545,26.0374,28.766399999999546L26.0374,19.730599999999544C25.8995,19.104099999999544,26.0753,18.449499999999546,26.5087,17.976499999999547C26.9542,17.510999999999544,27.5791,17.260699999999545,28.2227,17.289899999999545C28.9119,17.286799999999545,29.5784,17.535599999999544,30.097,17.988999999999546C30.6259,18.419599999999544,30.9382,19.060999999999545,30.9516,19.743099999999544L30.9641,19.743099999999544L30.9641,28.766399999999546ZM13.694,22.482299999999544L13.694,28.776299999999544C13.6819,29.425899999999544,13.4219,30.046199999999544,12.9672,30.510299999999546C12.5144,30.981199999999546,11.8838,31.238799999999546,11.2309,31.219699999999545C10.5732,31.236199999999545,9.93808,30.979299999999544,9.4767,30.510299999999546C9.01072,30.055399999999544,8.75475,29.427299999999544,8.77003,28.776299999999544L8.77003,22.479599999999547C8.60697,21.847299999999546,8.7987,21.176199999999547,9.27122,20.725399999999546C9.80369,20.248399999999545,10.5047,20.003899999999547,11.2184,20.046499999999547C12.0501,20.046499999999547,12.6692,20.269399999999546,13.0824,20.728099999999547C13.5058,21.212199999999545,13.7281,21.839699999999546,13.7038,22.482299999999544L13.694,22.482299999999544Z" fill-rule="evenodd" fill="url(#master_svg0_0_60886)" fill-opacity="1"/></g></g></svg>