<svg xmlns="http://www.w3.org/2000/svg" xmlns:xlink="http://www.w3.org/1999/xlink" fill="none" version="1.1" width="40" height="40.00048828125" viewBox="0 0 40 40.00048828125"><defs><radialGradient cx="0" cy="0" r="1" gradientUnits="userSpaceOnUse" id="master_svg0_0_3152" gradientTransform="translate(-1.2323475573339238e-12 4.513999290611224) rotate(40.37996789706022) scale(47.82366498979084 47.823067529821664)"><stop offset="0%" stop-color="#FF736A" stop-opacity="1"/><stop offset="19.1719189286232%" stop-color="#FF1A1A" stop-opacity="1"/><stop offset="46.37487530708313%" stop-color="#D9267F" stop-opacity="1"/><stop offset="100%" stop-color="#331DFB" stop-opacity="1"/></radialGradient></defs><g><g><path d="M20.1338,0L36.6615,2.41097L40,19.8146L36.734,36.5208L20.2463,40.0005L3.71866,36.7742L0,20.211L3.64114,2.65934L20.1338,0ZM10.0029,20.0025C10.0029,25.5448,14.4815,30.0378,20.0061,30.0378C24.665,30.0378,28.5437,26.8265,29.6591,22.5063L24.2949,22.5063C23.4246,23.9865,21.8366,24.9901,19.9986,24.9901C17.2363,24.9901,14.997,22.7436,14.997,19.9724C14.997,17.2013,17.2363,14.9548,19.9986,14.9548C21.791,14.9587,23.4431,15.9282,24.3249,17.4937L29.6541,17.4937C28.525,13.0714,24.5565,9.97556,20.0061,9.96729C14.4815,9.96729,10.0029,14.4602,10.0029,20.0025Z" fill-rule="evenodd" fill="url(#master_svg0_0_3152)" fill-opacity="1"/></g></g></svg>