<svg xmlns="http://www.w3.org/2000/svg" xmlns:xlink="http://www.w3.org/1999/xlink" fill="none" version="1.1" width="40" height="40" viewBox="0 0 40 40"><defs><radialGradient cx="0" cy="0" r="1" gradientUnits="userSpaceOnUse" id="master_svg0_0_2180" gradientTransform="translate(-1.2323475573339238e-12 4.513942897319794) rotate(40.37961464176283) scale(47.823414228208804 47.823414228208804)"><stop offset="0%" stop-color="#FF736A" stop-opacity="1"/><stop offset="19.1719189286232%" stop-color="#FF1A1A" stop-opacity="1"/><stop offset="46.37487530708313%" stop-color="#D9267F" stop-opacity="1"/><stop offset="100%" stop-color="#261DFB" stop-opacity="1"/></radialGradient></defs><g><g><path d="M7.55556,40L32.4444,40C36.6667,40,40,36.6667,40,32.4444L40,7.55556C40,3.33333,36.6667,0,32.4444,0L7.55556,0C3.33333,0,0,3.33333,0,7.55556L0,32.4444C0,36.6667,3.33333,40,7.55556,40ZM35.1109,7.77775C35.1109,6.44442,33.7776,5.11108,32.4443,5.11108L7.55539,5.11108C6.22206,5.11108,4.88873,6.44442,4.88873,7.77775L4.88873,10.2222C3.55539,10.2222,2.6665,11.3333,2.6665,12.6666L2.6665,15.1111C2.6665,16.4444,3.55539,17.5555,4.88873,17.5555L4.88873,22.4444C3.55539,22.4444,2.6665,23.5555,2.6665,24.8889L2.6665,27.3333C2.6665,28.6666,3.55539,29.7778,4.88873,29.7778L4.88873,32.2222C4.88873,33.5555,6.22206,34.8889,7.55539,34.8889L32.4443,34.8889C33.7776,34.8889,35.1109,33.5555,35.1109,32.2222L35.1109,7.77775ZM30.0001,32.8889L10.2223,32.8889C8.889,32.8889,7.77789,31.5556,7.77789,30.2223C9.11122,30.2223,10.0001,29.1112,10.0001,27.7778L10.0001,25.1112C10.0001,23.7778,8.889,22.6667,7.55566,22.6667L7.55566,17.7778C8.889,17.7778,10.0001,16.6667,10.0001,15.3334L10.0001,12.8889C10.0001,11.5556,9.11122,10.4445,7.77789,10.4445C7.77789,9.11117,8.889,7.77783,10.2223,7.77783L30.0001,7.77783C31.3334,7.77783,32.889,9.11117,32.889,10.4445L32.889,30.2223C32.889,31.3334,31.3334,32.8889,30.0001,32.8889ZM6.44466,15.1111C5.77799,15.1111,5.11133,14.4445,5.11133,13.7778C5.11133,13.1111,5.77799,12.4445,6.44466,12.4445C7.11133,12.4445,7.778,13.1111,7.778,13.7778C7.778,14.6667,7.11133,15.1111,6.44466,15.1111ZM12.4443,20.2222C12.4443,16,15.7777,12.6666,19.9999,12.6666C24.2221,12.6666,27.5554,16,27.5554,20.2222C27.5554,24.4444,24.2221,27.7777,19.9999,27.7777C15.7777,27.7777,12.4443,24.4444,12.4443,20.2222ZM15.1113,20.2223C15.1113,22.8889,17.3335,25.1112,20.0002,25.1112C22.8891,25.1112,25.1113,22.8889,24.8891,20.2223C24.8891,17.5556,22.6669,15.3334,20.0002,15.3334C17.3335,15.3334,15.1113,17.5556,15.1113,20.2223ZM6.44466,25.1111C7.11133,25.1111,7.778,25.7778,7.778,26.4444C7.778,27.1111,7.11133,27.7778,6.44466,27.7778C5.77799,27.7778,5.11133,27.3333,5.11133,26.4444C5.11133,25.5555,5.77799,25.1111,6.44466,25.1111Z" fill-rule="evenodd" fill="url(#master_svg0_0_2180)" fill-opacity="1"/></g></g></svg>