<svg xmlns="http://www.w3.org/2000/svg" xmlns:xlink="http://www.w3.org/1999/xlink" fill="none" version="1.1" width="40" height="40" viewBox="0 0 40 40"><defs><radialGradient cx="0" cy="0" r="1" gradientUnits="userSpaceOnUse" id="master_svg0_0_60917" gradientTransform="translate(-1.2323475573339238e-12 4.513939883937809) rotate(40.3795957654213) scale(47.82340082878612 47.823432754371794)"><stop offset="0%" stop-color="#FF736A" stop-opacity="1"/><stop offset="19.1719189286232%" stop-color="#FF1A1A" stop-opacity="1"/><stop offset="46.37487530708313%" stop-color="#D9267F" stop-opacity="1"/><stop offset="100%" stop-color="#261DFB" stop-opacity="1"/></radialGradient></defs><g><g><path d="M6.66699,6.32136L6.66699,15.8323C6.67538,19.3925,8.64437,22.519,11.5003,23.507L17.2487,25.477C19.0462,26.0907,20.9511,26.0907,22.7487,25.477L28.5003,23.507C31.3563,22.519,33.3253,19.3925,33.3337,15.8323L33.3337,6.32136C33.3337,3.92615,32.277,0,27.212,0.00798405C26.5521,0.0135187,25.8933,0.0735413,25.2403,0.187625C23.1282,0.923466,21.6733,3.2379,21.667,5.87226L21.667,21.6906C20.5738,22.0287,19.4268,22.0287,18.3337,21.6906L18.3337,5.87226C18.3273,3.2379,16.8725,0.923466,14.7603,0.187625C14.1075,0.0708689,13.4487,0.00817856,12.7887,0C7.72366,0,6.66699,3.92615,6.66699,6.32136ZM36.6667,15.8323L36.6667,8.02393C38.7576,9.89298,39.9924,12.8313,40,15.9561L40,29.9281C39.9945,35.4372,36.2668,39.9016,31.6667,39.9082L21.6667,39.9082L18.4,40L8.33333,39.9082C3.73324,39.9016,0.00551019,35.4372,0,29.9281L0,15.9561C0.00760111,12.8313,1.24239,9.89298,3.33333,8.02393L3.33333,15.8323C3.34782,21.1728,6.30237,25.8617,10.5867,27.3433L16.34,29.3133C18.7333,30.1319,21.2701,30.1319,23.6633,29.3133L29.4117,27.3453C33.6975,25.8648,36.6533,21.1743,36.6667,15.8323Z" fill-rule="evenodd" fill="url(#master_svg0_0_60917)" fill-opacity="1"/></g></g></svg>