<svg xmlns="http://www.w3.org/2000/svg" xmlns:xlink="http://www.w3.org/1999/xlink" fill="none" version="1.1" width="18" height="14" viewBox="0 0 18 14"><g><g><g><path d="M12.8827,0L4.18873,0C3.11851,-0.000112757,2.21941,0.804617,2.10133,1.8683L1.0128314,11.6683C0.9469257,12.262,1.136965,12.8556,1.535384,13.3007C1.9338039999999999,13.7457,2.5029,14.0001,3.10023,14L13.9712,14C14.5686,14.0001,15.1377,13.7457,15.5361,13.3007C15.9345,12.8556,16.124499999999998,12.262,16.0586,11.6683L14.9701,1.8683C14.8521,0.804617,13.9529,-0.000112757,12.8827,0ZM2.7970800000000002,1.94595C2.8755800000000002,1.23664,3.47504,0.699902,4.18868,0.699951L12.8827,0.699951C13.5963,0.699902,14.1958,1.23664,14.2743,1.94595L15.3628,11.746C15.4066,12.1417,15.2798,12.5373,15.0142,12.8339C14.7486,13.1305,14.3693,13.3,13.9712,13.3L3.10018,13.3C2.70204,13.3,2.32273,13.1305,2.05714,12.8339C1.791539,12.5373,1.664781,12.1417,1.7085759999999999,11.746L2.7970800000000002,1.94595Z" fill-rule="evenodd" fill="#000000" fill-opacity="1"/></g><g><path d="M4.685791015625002,4.1999755859375C4.685791015625002,6.3262755859375,6.409491015625,8.0499755859375,8.535791015625,8.0499755859375C10.662091015625,8.0499755859375,12.385791015625,6.3262755859375,12.385791015625,4.1999755859375C12.385791015625,4.0066755859375,12.229091015625,3.849975585937501,12.035791015625,3.849975585937501C11.842491015625,3.849975585937501,11.685791015625,4.0066755859375,11.685791015625,4.1999755859375C11.685791015625,5.939675585937501,10.275491015625,7.3499755859375,8.535791015625,7.3499755859375C6.7960910156250005,7.3499755859375,5.385791015625,5.939675585937501,5.385791015625,4.1999755859375C5.385791015625,4.0066755859375,5.229091015625,3.8499755859375,5.035791015625,3.8499755859375C4.842491015625,3.8499755859375,4.685791015625,4.0066755859375,4.685791015625,4.1999755859375L4.685791015625002,4.1999755859375Z" fill="#000000" fill-opacity="1"/></g></g></g></svg>