<svg xmlns="http://www.w3.org/2000/svg" xmlns:xlink="http://www.w3.org/1999/xlink" fill="none" version="1.1" width="16" height="15.99993896484375" viewBox="0 0 16 15.99993896484375"><g><g><g><path d="M8.6667,2.68338C8.66195,3.0469,8.36356,3.33782,8.00004,3.33337C7.63204,3.33337,7.33337,3.04204,7.33337,2.68338L7.33337,0.650048C7.33813,0.286528,7.63651,-0.00439642,8.00004,0.0000503034C8.36804,0.0000503034,8.6667,0.291383,8.6667,0.650048L8.6667,2.68338ZM4.70072,4.69997C4.44649,4.95988,4.02986,4.96495,3.76938,4.7113L2.33139,3.27397C2.20953,3.14899,2.14234,2.9807,2.14459,2.80616C2.14684,2.63161,2.21835,2.46511,2.34339,2.34331C2.59683,2.08292,3.01326,2.07695,3.27405,2.32998L4.71271,3.76931C4.83457,3.89429,4.90177,4.06258,4.89952,4.23712C4.89727,4.41167,4.82575,4.57817,4.70072,4.69997ZM13.6567,2.3436C13.4029,2.08358,12.9865,2.07821,12.726,2.3316L11.2874,3.7696C11.1656,3.89467,11.0985,4.06301,11.1009,4.23755C11.1033,4.4121,11.1749,4.57855,11.3,4.70026C11.4217,4.82546,11.5883,4.89709,11.7629,4.89934C11.9375,4.90159,12.1058,4.83428,12.2307,4.71226L13.6687,3.27427C13.9221,3.01384,13.9167,2.59741,13.6567,2.3436ZM8.00004,11.4588C6.09271,11.4588,4.54138,9.90749,4.54138,8.00016C4.54138,6.09283,6.09271,4.5415,8.00004,4.5415C9.90736,4.5415,11.4587,6.09283,11.4587,8.00016C11.4587,9.90749,9.9067,11.4588,8.00004,11.4588ZM8.00008,5.87451C6.82675,5.87561,5.87586,6.82651,5.87476,7.99984C5.87586,9.17317,6.82675,10.1241,8.00008,10.1252C9.17341,10.1241,10.1243,9.17317,10.1254,7.99984C10.1243,6.82651,9.17341,5.87561,8.00008,5.87451ZM2.68338,7.3335C3.04204,7.3335,3.33337,7.63216,3.33337,8.00016C3.33337,8.36883,3.04204,8.66683,2.68338,8.66683L0.650048,8.66683C0.286528,8.66207,-0.00439642,8.36368,0.0000503034,8.00016C0.0000503034,7.63216,0.291383,7.3335,0.650048,7.3335L2.68338,7.3335ZM16,8.00016C16,7.63216,15.7087,7.3335,15.35,7.3335L13.3167,7.3335C12.9573,7.3335,12.6667,7.63216,12.6667,8.00016C12.6644,8.17468,12.7315,8.34296,12.8533,8.46799C12.975,8.59302,13.1415,8.66454,13.316,8.66683L15.35,8.66683C15.708,8.66683,16,8.36883,16,8.00016ZM13.194,13.855C13.0194,13.8574,12.8511,13.7903,12.726,13.6686L11.2874,12.2299C11.1656,12.1048,11.0985,11.9365,11.1009,11.7619C11.1033,11.5874,11.1749,11.4209,11.3,11.2992C11.4217,11.174,11.5883,11.1024,11.7629,11.1002C11.9375,11.0979,12.1058,11.1652,12.2307,11.2872L13.6687,12.7252C13.9221,12.9857,13.9167,13.4021,13.6567,13.6559C13.535,13.781,13.3685,13.8527,13.194,13.855ZM4.23717,11.1011C4.06258,11.0989,3.89426,11.1662,3.76935,11.2882L2.33136,12.7255C2.07797,12.986,2.08334,13.4024,2.34336,13.6562C2.59679,13.9166,3.01323,13.9226,3.27402,13.6695L4.71202,12.2309C4.83387,12.1059,4.90107,11.9376,4.89882,11.7631C4.89657,11.5885,4.82505,11.422,4.70002,11.3002C4.5783,11.175,4.41177,11.1034,4.23717,11.1011ZM8.00004,15.9999C8.36356,16.0043,8.66195,15.7134,8.6667,15.3499L8.6667,13.3166C8.6667,12.9572,8.36804,12.6666,8.00004,12.6666C7.82552,12.6642,7.65724,12.7314,7.53221,12.8531C7.40718,12.9749,7.33566,13.1414,7.33337,13.3159L7.33337,15.3499C7.33337,15.7079,7.63137,15.9999,8.00004,15.9999Z" fill-rule="evenodd" fill="#1F1F1F" fill-opacity="1"/></g></g></g></svg>