<svg xmlns="http://www.w3.org/2000/svg" xmlns:xlink="http://www.w3.org/1999/xlink" fill="none" version="1.1" width="18" height="14.00006103515625" viewBox="0 0 18 14.00006103515625"><g><g><g><path d="M16.174166406250002,1.68761C16.66366640625,1.81201,17.48176640625,2.26007,17.48176640625,3.16264C17.48176640625,3.7211,17.16126640625,4.09376,16.80746640625,4.32156L16.80746640625,10.3779C16.80746640625,10.6009,16.62666640625,10.7818,16.40356640625,10.7818C16.18056640625,10.7818,15.99966640625,10.6009,15.99966640625,10.3779L15.99966640625,4.63014L14.83966640625,4.90586L14.83966640625,10.2637C14.83966640625,11.3343,11.94726640625,12.3844,8.99989640625,12.3844C6.05252640625,12.3844,3.16008640625,11.3343,3.16008640625,10.2637L3.16008640625,4.90586L1.82507640625,4.58867C1.38132840625,4.4982,0.51806640625,4.07922,0.51806640625,3.16264C0.51806640625,2.25953,1.3366304062499998,1.81201,1.81968640625,1.68923L8.89165640625,0.0111739C8.95268640625,-0.00354041,9.01632640625,-0.00372486,9.07744640625,0.0106354L16.174166406250002,1.68761ZM8.99989640625,5.4642L3.74115640625,4.21373C3.68618640625,4.18604,3.62553640625,4.17148,3.56398640625,4.17119L3.56290640625,4.17119L2.0011664062500003,3.80014C1.97370640625,3.79422,1.32531740625,3.64828,1.32531740625,3.16253C1.32531740625,2.6626,2.01093640625,2.47402,2.01086640625,2.47375L8.98373640625,0.818848L15.98086640625,2.47267C15.98786640625,2.47429,16.67286640625,2.66169,16.67286640625,3.16306C16.67286640625,3.64882,16.02496640625,3.7953,15.98676640625,3.80337L8.99935640625,5.46474L8.99989640625,5.4642ZM8.99990640625,11.5772C11.88426640625,11.5772,13.86656640625,10.5868,14.03196640625,10.2422L14.03136640625,10.2422L14.03136640625,5.09814L9.08499640625,6.27429C9.00553640625,6.29367,8.92202640625,6.28803,8.84588640625,6.25814L3.96789640625,5.09814L3.96789640625,10.2422C4.1332264062499995,10.5874,6.11554640625,11.5772,8.99990640625,11.5772ZM15.99976640625,11.9806C15.99976640625,11.7575,16.18056640625,11.5767,16.40366640625,11.5767C16.62676640625,11.5767,16.80756640625,11.7575,16.80756640625,11.9806L16.80756640625,13.5961C16.80756640625,13.8192,16.62676640625,14,16.40366640625,14C16.18056640625,14,15.99976640625,13.8192,15.99976640625,13.5961L15.99976640625,11.9806Z" fill-rule="evenodd" fill="#1F1F1F" fill-opacity="1"/></g></g></g></svg>